<?xml version="1.0" encoding="UTF-8" standalone="no"?>
<!DOCTYPE svg PUBLIC "-//W3C//DTD SVG 1.1//EN"
 "http://www.w3.org/Graphics/SVG/1.1/DTD/svg11.dtd">
<!-- Generated by graphviz version 2.43.0 (0)
 -->
<!-- Title: DigitalNoteSender.hpp Pages: 1 -->
<svg width="2199pt" height="196pt"
 viewBox="0.00 0.00 2199.00 196.00" xmlns="http://www.w3.org/2000/svg" xmlns:xlink="http://www.w3.org/1999/xlink">
<g id="graph0" class="graph" transform="scale(1 1) rotate(0) translate(4 192)">
<title>DigitalNoteSender.hpp</title>
<polygon fill="white" stroke="transparent" points="-4,4 -4,-192 2195,-192 2195,4 -4,4"/>
<!-- Node1 -->
<g id="node1" class="node">
<title>Node1</title>
<g id="a_node1"><a xlink:title=" ">
<polygon fill="#bfbfbf" stroke="black" points="1009,-168.5 1009,-187.5 1135,-187.5 1135,-168.5 1009,-168.5"/>
<text text-anchor="middle" x="1072" y="-175.5" font-family="Helvetica,sans-Serif" font-size="10.00">DigitalNoteSender.hpp</text>
</a>
</g>
</g>
<!-- Node2 -->
<g id="node2" class="node">
<title>Node2</title>
<g id="a_node2"><a xlink:href="../../d1/de5/CCIncrementDecrementButtons_8hpp.html" target="_top" xlink:title=" ">
<polygon fill="white" stroke="black" points="0,-56.5 0,-75.5 192,-75.5 192,-56.5 0,-56.5"/>
<text text-anchor="middle" x="96" y="-63.5" font-family="Helvetica,sans-Serif" font-size="10.00">CCIncrementDecrementButtons.hpp</text>
</a>
</g>
</g>
<!-- Node1&#45;&gt;Node2 -->
<g id="edge1" class="edge">
<title>Node1&#45;&gt;Node2</title>
<path fill="none" stroke="midnightblue" d="M998.8,-176.14C797.39,-173.38 244.81,-163.04 169,-132 139.48,-119.91 113.95,-90.52 102.47,-75.76"/>
<polygon fill="midnightblue" stroke="midnightblue" points="998.94,-179.64 1008.99,-176.28 999.04,-172.64 998.94,-179.64"/>
</g>
<!-- Node4 -->
<g id="node4" class="node">
<title>Node4</title>
<g id="a_node4"><a xlink:href="../../de/dc8/Bankable_2Abstract_2MIDIIncrementDecrementButtons_8hpp.html" target="_top" xlink:title=" ">
<polygon fill="white" stroke="black" points="415.5,-112.5 415.5,-131.5 616.5,-131.5 616.5,-112.5 415.5,-112.5"/>
<text text-anchor="middle" x="516" y="-119.5" font-family="Helvetica,sans-Serif" font-size="10.00">MIDIIncrementDecrementButtons.hpp</text>
</a>
</g>
</g>
<!-- Node1&#45;&gt;Node4 -->
<g id="edge3" class="edge">
<title>Node1&#45;&gt;Node4</title>
<path fill="none" stroke="midnightblue" d="M998.56,-169.87C896.71,-159.98 712.82,-142.12 603.83,-131.53"/>
<polygon fill="midnightblue" stroke="midnightblue" points="998.47,-173.37 1008.76,-170.86 999.15,-166.41 998.47,-173.37"/>
</g>
<!-- Node7 -->
<g id="node7" class="node">
<title>Node7</title>
<g id="a_node7"><a xlink:href="../../db/d20/Abstract_2MIDIIncrementDecrementButtons_8hpp.html" target="_top" xlink:title=" ">
<polygon fill="white" stroke="black" points="178.5,-112.5 178.5,-131.5 379.5,-131.5 379.5,-112.5 178.5,-112.5"/>
<text text-anchor="middle" x="279" y="-119.5" font-family="Helvetica,sans-Serif" font-size="10.00">MIDIIncrementDecrementButtons.hpp</text>
</a>
</g>
</g>
<!-- Node1&#45;&gt;Node7 -->
<g id="edge8" class="edge">
<title>Node1&#45;&gt;Node7</title>
<path fill="none" stroke="midnightblue" d="M998.6,-172.12C875.9,-163.94 621.34,-146.91 406,-132 397.4,-131.4 388.47,-130.78 379.52,-130.15"/>
<polygon fill="midnightblue" stroke="midnightblue" points="998.42,-175.62 1008.63,-172.79 998.89,-168.63 998.42,-175.62"/>
</g>
<!-- Node8 -->
<g id="node8" class="node">
<title>Node8</title>
<g id="a_node8"><a xlink:href="../../de/d14/ManyAddresses_2NoteButton_8hpp.html" target="_top" xlink:title=" ">
<polygon fill="white" stroke="black" points="630.5,-56.5 630.5,-75.5 723.5,-75.5 723.5,-56.5 630.5,-56.5"/>
<text text-anchor="middle" x="677" y="-63.5" font-family="Helvetica,sans-Serif" font-size="10.00">NoteButton.hpp</text>
</a>
</g>
</g>
<!-- Node1&#45;&gt;Node8 -->
<g id="edge10" class="edge">
<title>Node1&#45;&gt;Node8</title>
<path fill="none" stroke="midnightblue" d="M1028.72,-165.93C994.1,-157 944.36,-143.99 901,-132 830.56,-112.51 748.09,-88.19 705.58,-75.54"/>
<polygon fill="midnightblue" stroke="midnightblue" points="1027.95,-169.35 1038.51,-168.45 1029.7,-162.57 1027.95,-169.35"/>
</g>
<!-- Node9 -->
<g id="node9" class="node">
<title>Node9</title>
<g id="a_node9"><a xlink:href="../../d3/d80/NoteButton_8hpp.html" target="_top" xlink:title=" ">
<polygon fill="white" stroke="black" points="741.5,-56.5 741.5,-75.5 834.5,-75.5 834.5,-56.5 741.5,-56.5"/>
<text text-anchor="middle" x="788" y="-63.5" font-family="Helvetica,sans-Serif" font-size="10.00">NoteButton.hpp</text>
</a>
</g>
</g>
<!-- Node1&#45;&gt;Node9 -->
<g id="edge12" class="edge">
<title>Node1&#45;&gt;Node9</title>
<path fill="none" stroke="midnightblue" d="M1040.31,-164.73C982.27,-142.25 860.27,-94.99 810.18,-75.59"/>
<polygon fill="midnightblue" stroke="midnightblue" points="1039.13,-168.02 1049.71,-168.37 1041.65,-161.49 1039.13,-168.02"/>
</g>
<!-- Node10 -->
<g id="node10" class="node">
<title>Node10</title>
<g id="a_node10"><a xlink:href="../../d5/d8e/Bankable_2NoteButton_8hpp.html" target="_top" xlink:title=" ">
<polygon fill="white" stroke="black" points="852.5,-56.5 852.5,-75.5 945.5,-75.5 945.5,-56.5 852.5,-56.5"/>
<text text-anchor="middle" x="899" y="-63.5" font-family="Helvetica,sans-Serif" font-size="10.00">NoteButton.hpp</text>
</a>
</g>
</g>
<!-- Node1&#45;&gt;Node10 -->
<g id="edge14" class="edge">
<title>Node1&#45;&gt;Node10</title>
<path fill="none" stroke="midnightblue" d="M1047.3,-163.39C1031.81,-154.7 1011.53,-143.03 994,-132 963.39,-112.74 928.57,-88.22 910.8,-75.51"/>
<polygon fill="midnightblue" stroke="midnightblue" points="1045.81,-166.57 1056.25,-168.38 1049.22,-160.46 1045.81,-166.57"/>
</g>
<!-- Node11 -->
<g id="node11" class="node">
<title>Node11</title>
<g id="a_node11"><a xlink:href="../../df/de8/Bankable_2NoteButtonLatched_8hpp.html" target="_top" xlink:title=" ">
<polygon fill="white" stroke="black" points="963.5,-56.5 963.5,-75.5 1094.5,-75.5 1094.5,-56.5 963.5,-56.5"/>
<text text-anchor="middle" x="1029" y="-63.5" font-family="Helvetica,sans-Serif" font-size="10.00">NoteButtonLatched.hpp</text>
</a>
</g>
</g>
<!-- Node1&#45;&gt;Node11 -->
<g id="edge16" class="edge">
<title>Node1&#45;&gt;Node11</title>
<path fill="none" stroke="midnightblue" d="M1037.4,-163.92C1023.49,-156.75 1008.89,-146.34 1001,-132 990.34,-112.62 1008.51,-88.36 1020.24,-75.66"/>
<polygon fill="midnightblue" stroke="midnightblue" points="1036.3,-167.27 1046.84,-168.38 1039.29,-160.94 1036.3,-167.27"/>
</g>
<!-- Node12 -->
<g id="node12" class="node">
<title>Node12</title>
<g id="a_node12"><a xlink:href="../../d0/d4e/NoteButtonLatched_8hpp.html" target="_top" xlink:title=" ">
<polygon fill="white" stroke="black" points="1112.5,-56.5 1112.5,-75.5 1243.5,-75.5 1243.5,-56.5 1112.5,-56.5"/>
<text text-anchor="middle" x="1178" y="-63.5" font-family="Helvetica,sans-Serif" font-size="10.00">NoteButtonLatched.hpp</text>
</a>
</g>
</g>
<!-- Node1&#45;&gt;Node12 -->
<g id="edge18" class="edge">
<title>Node1&#45;&gt;Node12</title>
<path fill="none" stroke="midnightblue" d="M1054.09,-160.82C1041.17,-147.15 1027.8,-127.4 1039,-112 1050.34,-96.41 1097.22,-83.47 1133.43,-75.53"/>
<polygon fill="midnightblue" stroke="midnightblue" points="1051.88,-163.56 1061.46,-168.09 1056.79,-158.57 1051.88,-163.56"/>
</g>
<!-- Node13 -->
<g id="node13" class="node">
<title>Node13</title>
<g id="a_node13"><a xlink:href="../../d6/d6e/Bankable_2NoteButtonLatching_8hpp.html" target="_top" xlink:title=" ">
<polygon fill="white" stroke="black" points="1262,-56.5 1262,-75.5 1396,-75.5 1396,-56.5 1262,-56.5"/>
<text text-anchor="middle" x="1329" y="-63.5" font-family="Helvetica,sans-Serif" font-size="10.00">NoteButtonLatching.hpp</text>
</a>
</g>
</g>
<!-- Node1&#45;&gt;Node13 -->
<g id="edge20" class="edge">
<title>Node1&#45;&gt;Node13</title>
<path fill="none" stroke="midnightblue" d="M1067.86,-158.28C1065.85,-143.84 1065.87,-124.31 1077,-112 1083.51,-104.8 1198.56,-86.46 1270.93,-75.55"/>
<polygon fill="midnightblue" stroke="midnightblue" points="1064.42,-158.92 1069.65,-168.13 1071.31,-157.67 1064.42,-158.92"/>
</g>
<!-- Node14 -->
<g id="node14" class="node">
<title>Node14</title>
<g id="a_node14"><a xlink:href="../../d6/d09/NoteButtonLatching_8hpp.html" target="_top" xlink:title=" ">
<polygon fill="white" stroke="black" points="1414,-56.5 1414,-75.5 1548,-75.5 1548,-56.5 1414,-56.5"/>
<text text-anchor="middle" x="1481" y="-63.5" font-family="Helvetica,sans-Serif" font-size="10.00">NoteButtonLatching.hpp</text>
</a>
</g>
</g>
<!-- Node1&#45;&gt;Node14 -->
<g id="edge22" class="edge">
<title>Node1&#45;&gt;Node14</title>
<path fill="none" stroke="midnightblue" d="M1077.76,-158.23C1083.43,-143.14 1093.65,-122.74 1110,-112 1111.58,-110.96 1307.24,-87.62 1413.74,-74.97"/>
<polygon fill="midnightblue" stroke="midnightblue" points="1074.32,-157.48 1074.41,-168.07 1080.95,-159.73 1074.32,-157.48"/>
</g>
<!-- Node15 -->
<g id="node15" class="node">
<title>Node15</title>
<g id="a_node15"><a xlink:href="../../dc/dde/Bankable_2NoteButtonMatrix_8hpp.html" target="_top" xlink:title=" ">
<polygon fill="white" stroke="black" points="1119.5,-112.5 1119.5,-131.5 1244.5,-131.5 1244.5,-112.5 1119.5,-112.5"/>
<text text-anchor="middle" x="1182" y="-119.5" font-family="Helvetica,sans-Serif" font-size="10.00">NoteButtonMatrix.hpp</text>
</a>
</g>
</g>
<!-- Node1&#45;&gt;Node15 -->
<g id="edge24" class="edge">
<title>Node1&#45;&gt;Node15</title>
<path fill="none" stroke="midnightblue" d="M1098.76,-163.86C1119.16,-153.85 1146.67,-140.35 1164.37,-131.65"/>
<polygon fill="midnightblue" stroke="midnightblue" points="1097.11,-160.78 1089.67,-168.32 1100.19,-167.06 1097.11,-160.78"/>
</g>
<!-- Node16 -->
<g id="node16" class="node">
<title>Node16</title>
<g id="a_node16"><a xlink:href="../../d1/da1/ManyAddresses_2NoteButtonMatrix_8hpp.html" target="_top" xlink:title=" ">
<polygon fill="white" stroke="black" points="1262.5,-112.5 1262.5,-131.5 1387.5,-131.5 1387.5,-112.5 1262.5,-112.5"/>
<text text-anchor="middle" x="1325" y="-119.5" font-family="Helvetica,sans-Serif" font-size="10.00">NoteButtonMatrix.hpp</text>
</a>
</g>
</g>
<!-- Node1&#45;&gt;Node16 -->
<g id="edge26" class="edge">
<title>Node1&#45;&gt;Node16</title>
<path fill="none" stroke="midnightblue" d="M1121.92,-166.35C1169.73,-156.14 1240.95,-140.94 1285.1,-131.52"/>
<polygon fill="midnightblue" stroke="midnightblue" points="1121.14,-162.93 1112.09,-168.44 1122.6,-169.78 1121.14,-162.93"/>
</g>
<!-- Node17 -->
<g id="node17" class="node">
<title>Node17</title>
<g id="a_node17"><a xlink:href="../../d2/da8/NoteButtonMatrix_8hpp.html" target="_top" xlink:title=" ">
<polygon fill="white" stroke="black" points="1405.5,-112.5 1405.5,-131.5 1530.5,-131.5 1530.5,-112.5 1405.5,-112.5"/>
<text text-anchor="middle" x="1468" y="-119.5" font-family="Helvetica,sans-Serif" font-size="10.00">NoteButtonMatrix.hpp</text>
</a>
</g>
</g>
<!-- Node1&#45;&gt;Node17 -->
<g id="edge28" class="edge">
<title>Node1&#45;&gt;Node17</title>
<path fill="none" stroke="midnightblue" d="M1145.02,-167.04C1219.82,-156.84 1334.85,-141.16 1405.55,-131.52"/>
<polygon fill="midnightblue" stroke="midnightblue" points="1144.18,-163.62 1134.75,-168.44 1145.13,-170.56 1144.18,-163.62"/>
</g>
<!-- Node18 -->
<g id="node18" class="node">
<title>Node18</title>
<g id="a_node18"><a xlink:href="../../dd/dbb/Bankable_2NoteButtons_8hpp.html" target="_top" xlink:title=" ">
<polygon fill="white" stroke="black" points="1549,-112.5 1549,-131.5 1647,-131.5 1647,-112.5 1549,-112.5"/>
<text text-anchor="middle" x="1598" y="-119.5" font-family="Helvetica,sans-Serif" font-size="10.00">NoteButtons.hpp</text>
</a>
</g>
</g>
<!-- Node1&#45;&gt;Node18 -->
<g id="edge30" class="edge">
<title>Node1&#45;&gt;Node18</title>
<path fill="none" stroke="midnightblue" d="M1145.24,-171.2C1237.31,-163.63 1400.13,-149.27 1539,-132 1542.19,-131.6 1545.47,-131.17 1548.77,-130.72"/>
<polygon fill="midnightblue" stroke="midnightblue" points="1144.87,-167.72 1135.19,-172.03 1145.45,-174.7 1144.87,-167.72"/>
</g>
<!-- Node19 -->
<g id="node19" class="node">
<title>Node19</title>
<g id="a_node19"><a xlink:href="../../d4/db7/NoteButtons_8hpp.html" target="_top" xlink:title=" ">
<polygon fill="white" stroke="black" points="1665,-112.5 1665,-131.5 1763,-131.5 1763,-112.5 1665,-112.5"/>
<text text-anchor="middle" x="1714" y="-119.5" font-family="Helvetica,sans-Serif" font-size="10.00">NoteButtons.hpp</text>
</a>
</g>
</g>
<!-- Node1&#45;&gt;Node19 -->
<g id="edge32" class="edge">
<title>Node1&#45;&gt;Node19</title>
<path fill="none" stroke="midnightblue" d="M1145.3,-173.17C1256.12,-166.97 1472.82,-153.24 1656,-132 1658.94,-131.66 1661.95,-131.28 1664.99,-130.88"/>
<polygon fill="midnightblue" stroke="midnightblue" points="1145.03,-169.68 1135.24,-173.73 1145.42,-176.67 1145.03,-169.68"/>
</g>
<!-- Node20 -->
<g id="node20" class="node">
<title>Node20</title>
<g id="a_node20"><a xlink:href="../../de/de3/Bankable_2NoteChordButton_8hpp.html" target="_top" xlink:title=" ">
<polygon fill="white" stroke="black" points="1781,-112.5 1781,-131.5 1903,-131.5 1903,-112.5 1781,-112.5"/>
<text text-anchor="middle" x="1842" y="-119.5" font-family="Helvetica,sans-Serif" font-size="10.00">NoteChordButton.hpp</text>
</a>
</g>
</g>
<!-- Node1&#45;&gt;Node20 -->
<g id="edge34" class="edge">
<title>Node1&#45;&gt;Node20</title>
<path fill="none" stroke="midnightblue" d="M1145.38,-173.82C1272.97,-167.95 1543.92,-153.97 1772,-132 1774.93,-131.72 1777.92,-131.41 1780.94,-131.08"/>
<polygon fill="midnightblue" stroke="midnightblue" points="1145.16,-170.33 1135.33,-174.28 1145.48,-177.32 1145.16,-170.33"/>
</g>
<!-- Node21 -->
<g id="node21" class="node">
<title>Node21</title>
<g id="a_node21"><a xlink:href="../../df/de2/NoteChordButton_8hpp.html" target="_top" xlink:title=" ">
<polygon fill="white" stroke="black" points="1921,-112.5 1921,-131.5 2043,-131.5 2043,-112.5 1921,-112.5"/>
<text text-anchor="middle" x="1982" y="-119.5" font-family="Helvetica,sans-Serif" font-size="10.00">NoteChordButton.hpp</text>
</a>
</g>
</g>
<!-- Node1&#45;&gt;Node21 -->
<g id="edge36" class="edge">
<title>Node1&#45;&gt;Node21</title>
<path fill="none" stroke="midnightblue" d="M1145.26,-174.91C1291.34,-170.33 1629.18,-157.72 1912,-132 1914.93,-131.73 1917.92,-131.44 1920.95,-131.12"/>
<polygon fill="midnightblue" stroke="midnightblue" points="1144.96,-171.42 1135.08,-175.22 1145.18,-178.41 1144.96,-171.42"/>
</g>
<!-- Node22 -->
<g id="node22" class="node">
<title>Node22</title>
<g id="a_node22"><a xlink:href="../../db/de5/NotePotentiometer_8hpp.html" target="_top" xlink:title=" ">
<polygon fill="white" stroke="black" points="2061,-112.5 2061,-131.5 2191,-131.5 2191,-112.5 2061,-112.5"/>
<text text-anchor="middle" x="2126" y="-119.5" font-family="Helvetica,sans-Serif" font-size="10.00">NotePotentiometer.hpp</text>
</a>
</g>
</g>
<!-- Node1&#45;&gt;Node22 -->
<g id="edge38" class="edge">
<title>Node1&#45;&gt;Node22</title>
<path fill="none" stroke="midnightblue" d="M1145.57,-175.51C1308.9,-171.79 1714.03,-160.27 2052,-132 2054.84,-131.76 2057.73,-131.5 2060.66,-131.22"/>
<polygon fill="midnightblue" stroke="midnightblue" points="1145.08,-172.02 1135.16,-175.74 1145.24,-179.02 1145.08,-172.02"/>
</g>
<!-- Node3 -->
<g id="node3" class="node">
<title>Node3</title>
<g id="a_node3"><a xlink:href="../../db/dbf/Control__Surface_8h.html" target="_top" xlink:title="The main header file that includes all Control&#45;Surface header files.">
<polygon fill="white" stroke="black" points="1353.5,-0.5 1353.5,-19.5 1456.5,-19.5 1456.5,-0.5 1353.5,-0.5"/>
<text text-anchor="middle" x="1405" y="-7.5" font-family="Helvetica,sans-Serif" font-size="10.00">Control_Surface.h</text>
</a>
</g>
</g>
<!-- Node2&#45;&gt;Node3 -->
<g id="edge2" class="edge">
<title>Node2&#45;&gt;Node3</title>
<path fill="none" stroke="midnightblue" d="M202.12,-55.96C654.63,-28.39 1187.64,-15.57 1353.32,-12.04"/>
<polygon fill="midnightblue" stroke="midnightblue" points="201.88,-52.47 192.12,-56.57 202.31,-59.46 201.88,-52.47"/>
</g>
<!-- Node5 -->
<g id="node5" class="node">
<title>Node5</title>
<g id="a_node5"><a xlink:href="../../d7/dcc/Bankable_2CCIncrementDecrementButtons_8hpp.html" target="_top" xlink:title=" ">
<polygon fill="white" stroke="black" points="210,-56.5 210,-75.5 402,-75.5 402,-56.5 210,-56.5"/>
<text text-anchor="middle" x="306" y="-63.5" font-family="Helvetica,sans-Serif" font-size="10.00">CCIncrementDecrementButtons.hpp</text>
</a>
</g>
</g>
<!-- Node4&#45;&gt;Node5 -->
<g id="edge4" class="edge">
<title>Node4&#45;&gt;Node5</title>
<path fill="none" stroke="midnightblue" d="M472.81,-109.89C433.15,-99.7 375.23,-84.8 339.12,-75.52"/>
<polygon fill="midnightblue" stroke="midnightblue" points="472.17,-113.34 482.72,-112.44 473.91,-106.56 472.17,-113.34"/>
</g>
<!-- Node6 -->
<g id="node6" class="node">
<title>Node6</title>
<g id="a_node6"><a xlink:href="../../d7/d70/ManyAddresses_2CCIncrementDecrementButtons_8hpp.html" target="_top" xlink:title=" ">
<polygon fill="white" stroke="black" points="420,-56.5 420,-75.5 612,-75.5 612,-56.5 420,-56.5"/>
<text text-anchor="middle" x="516" y="-63.5" font-family="Helvetica,sans-Serif" font-size="10.00">CCIncrementDecrementButtons.hpp</text>
</a>
</g>
</g>
<!-- Node4&#45;&gt;Node6 -->
<g id="edge6" class="edge">
<title>Node4&#45;&gt;Node6</title>
<path fill="none" stroke="midnightblue" d="M516,-101.8C516,-92.91 516,-82.78 516,-75.75"/>
<polygon fill="midnightblue" stroke="midnightblue" points="512.5,-102.08 516,-112.08 519.5,-102.08 512.5,-102.08"/>
</g>
<!-- Node5&#45;&gt;Node3 -->
<g id="edge5" class="edge">
<title>Node5&#45;&gt;Node3</title>
<path fill="none" stroke="midnightblue" d="M412.14,-55.95C779.32,-32.13 1207.66,-17.29 1353.48,-12.6"/>
<polygon fill="midnightblue" stroke="midnightblue" points="411.87,-52.46 402.12,-56.61 412.33,-59.45 411.87,-52.46"/>
</g>
<!-- Node6&#45;&gt;Node3 -->
<g id="edge7" class="edge">
<title>Node6&#45;&gt;Node3</title>
<path fill="none" stroke="midnightblue" d="M622.15,-55.94C904.44,-35.88 1228.94,-19.5 1353.14,-13.47"/>
<polygon fill="midnightblue" stroke="midnightblue" points="621.85,-52.45 612.12,-56.65 622.35,-59.43 621.85,-52.45"/>
</g>
<!-- Node7&#45;&gt;Node2 -->
<g id="edge9" class="edge">
<title>Node7&#45;&gt;Node2</title>
<path fill="none" stroke="midnightblue" d="M240.26,-109.57C205.74,-99.38 155.99,-84.7 124.86,-75.52"/>
<polygon fill="midnightblue" stroke="midnightblue" points="239.42,-112.97 250,-112.44 241.4,-106.26 239.42,-112.97"/>
</g>
<!-- Node8&#45;&gt;Node3 -->
<g id="edge11" class="edge">
<title>Node8&#45;&gt;Node3</title>
<path fill="none" stroke="midnightblue" d="M733.95,-55.87C970.75,-29.1 1241.96,-16.96 1353.34,-12.77"/>
<polygon fill="midnightblue" stroke="midnightblue" points="733.3,-52.42 723.77,-57.04 734.1,-59.38 733.3,-52.42"/>
</g>
<!-- Node9&#45;&gt;Node3 -->
<g id="edge13" class="edge">
<title>Node9&#45;&gt;Node3</title>
<path fill="none" stroke="midnightblue" d="M844.82,-55.86C1037.9,-32.74 1255.84,-19.14 1353.33,-13.71"/>
<polygon fill="midnightblue" stroke="midnightblue" points="844.28,-52.4 834.77,-57.08 845.12,-59.35 844.28,-52.4"/>
</g>
<!-- Node10&#45;&gt;Node3 -->
<g id="edge15" class="edge">
<title>Node10&#45;&gt;Node3</title>
<path fill="none" stroke="midnightblue" d="M956.08,-55.79C1105.98,-36.34 1271.47,-21.81 1353.48,-15.08"/>
<polygon fill="midnightblue" stroke="midnightblue" points="955.24,-52.37 945.78,-57.14 956.15,-59.31 955.24,-52.37"/>
</g>
<!-- Node11&#45;&gt;Node3 -->
<g id="edge17" class="edge">
<title>Node11&#45;&gt;Node3</title>
<path fill="none" stroke="midnightblue" d="M1098.71,-54.99C1172.47,-44.4 1287.15,-27.93 1353.26,-18.43"/>
<polygon fill="midnightblue" stroke="midnightblue" points="1097.98,-51.56 1088.58,-56.44 1098.97,-58.49 1097.98,-51.56"/>
</g>
<!-- Node12&#45;&gt;Node3 -->
<g id="edge19" class="edge">
<title>Node12&#45;&gt;Node3</title>
<path fill="none" stroke="midnightblue" d="M1223.87,-54.09C1266.75,-43.89 1329.92,-28.86 1369.2,-19.52"/>
<polygon fill="midnightblue" stroke="midnightblue" points="1222.89,-50.72 1213.97,-56.44 1224.51,-57.53 1222.89,-50.72"/>
</g>
<!-- Node13&#45;&gt;Node3 -->
<g id="edge21" class="edge">
<title>Node13&#45;&gt;Node3</title>
<path fill="none" stroke="midnightblue" d="M1349.58,-50.38C1363.31,-40.62 1380.93,-28.11 1392.57,-19.83"/>
<polygon fill="midnightblue" stroke="midnightblue" points="1347.34,-47.68 1341.21,-56.32 1351.39,-53.38 1347.34,-47.68"/>
</g>
<!-- Node14&#45;&gt;Node3 -->
<g id="edge23" class="edge">
<title>Node14&#45;&gt;Node3</title>
<path fill="none" stroke="midnightblue" d="M1460.42,-50.38C1446.69,-40.62 1429.07,-28.11 1417.43,-19.83"/>
<polygon fill="midnightblue" stroke="midnightblue" points="1458.61,-53.38 1468.79,-56.32 1462.66,-47.68 1458.61,-53.38"/>
</g>
<!-- Node15&#45;&gt;Node3 -->
<g id="edge25" class="edge">
<title>Node15&#45;&gt;Node3</title>
<path fill="none" stroke="midnightblue" d="M1255.11,-111.99C1336.69,-105.57 1513.76,-124.67 1557,-76 1589.22,-39.74 1512.66,-23.03 1456.9,-15.86"/>
<polygon fill="midnightblue" stroke="midnightblue" points="1254.32,-108.55 1244.72,-113.02 1255.01,-115.52 1254.32,-108.55"/>
</g>
<!-- Node16&#45;&gt;Node3 -->
<g id="edge27" class="edge">
<title>Node16&#45;&gt;Node3</title>
<path fill="none" stroke="midnightblue" d="M1397.19,-111.07C1473.49,-100.23 1583.73,-83.42 1590,-76 1629.15,-29.64 1524.09,-16.33 1456.66,-12.52"/>
<polygon fill="midnightblue" stroke="midnightblue" points="1396.54,-107.63 1387.13,-112.49 1397.53,-114.56 1396.54,-107.63"/>
</g>
<!-- Node17&#45;&gt;Node3 -->
<g id="edge29" class="edge">
<title>Node17&#45;&gt;Node3</title>
<path fill="none" stroke="midnightblue" d="M1534.8,-110.51C1573.32,-102.94 1616.36,-91.36 1628,-76 1633.37,-68.91 1633.63,-62.88 1628,-56 1606.77,-30.06 1515.65,-18.73 1456.65,-14.05"/>
<polygon fill="midnightblue" stroke="midnightblue" points="1533.78,-107.14 1524.61,-112.44 1535.09,-114.01 1533.78,-107.14"/>
</g>
<!-- Node18&#45;&gt;Node3 -->
<g id="edge31" class="edge">
<title>Node18&#45;&gt;Node3</title>
<path fill="none" stroke="midnightblue" d="M1620.72,-106.31C1638.73,-92.85 1658.76,-72.58 1645,-56 1621.55,-27.74 1519.92,-17.12 1456.67,-13.21"/>
<polygon fill="midnightblue" stroke="midnightblue" points="1618.35,-103.69 1612.2,-112.32 1622.39,-109.41 1618.35,-103.69"/>
</g>
<!-- Node19&#45;&gt;Node3 -->
<g id="edge33" class="edge">
<title>Node19&#45;&gt;Node3</title>
<path fill="none" stroke="midnightblue" d="M1704.69,-103.25C1695.8,-88.17 1680.97,-67.24 1662,-56 1628.09,-35.92 1521.55,-22.35 1456.78,-15.71"/>
<polygon fill="midnightblue" stroke="midnightblue" points="1701.72,-105.12 1709.65,-112.15 1707.84,-101.71 1701.72,-105.12"/>
</g>
<!-- Node20&#45;&gt;Node3 -->
<g id="edge35" class="edge">
<title>Node20&#45;&gt;Node3</title>
<path fill="none" stroke="midnightblue" d="M1816.06,-107.75C1786,-92.96 1734.63,-69.33 1688,-56 1608.96,-33.4 1514.04,-21.22 1456.68,-15.43"/>
<polygon fill="midnightblue" stroke="midnightblue" points="1814.88,-111.08 1825.39,-112.41 1818,-104.81 1814.88,-111.08"/>
</g>
<!-- Node21&#45;&gt;Node3 -->
<g id="edge37" class="edge">
<title>Node21&#45;&gt;Node3</title>
<path fill="none" stroke="midnightblue" d="M1943.41,-109.51C1894.4,-95.27 1807.06,-71.05 1731,-56 1634.88,-36.99 1521.24,-23.25 1456.69,-16.26"/>
<polygon fill="midnightblue" stroke="midnightblue" points="1942.68,-112.95 1953.26,-112.39 1944.65,-106.23 1942.68,-112.95"/>
</g>
<!-- Node22&#45;&gt;Node3 -->
<g id="edge39" class="edge">
<title>Node22&#45;&gt;Node3</title>
<path fill="none" stroke="midnightblue" d="M2076.4,-110.33C2010.53,-96.42 1890.44,-71.99 1787,-56 1669.37,-37.82 1530.35,-23.14 1456.75,-15.9"/>
<polygon fill="midnightblue" stroke="midnightblue" points="2075.99,-113.82 2086.5,-112.46 2077.44,-106.97 2075.99,-113.82"/>
</g>
</g>
</svg>
